# xmcd
#
# Track frame offsets: 
#        150
#        18160
#        36400
#        52005
#        64060
#        74320
#        88122
#        103435
#        118622
#        136845
#
# Disc length: 2020 seconds
#
# Revision: 4
# Processed by: cddbd v1.5.1PL0 Copyright (c) Steve Scherf et al.
# Submitted via: ExactAudioCopy v0.95a5
#
DISCID=8f07e20a
DTITLE=Marty Stuart - This One's Gonna Hurt You
DYEAR=1992
DGENRE=Country
TTITLE0=Me and Hank and Jumpin' Jack Flash
TTITLE1=High On A Mountain Top
TTITLE2=This One's Gonna Hurt You (For A Long, Long Time) [with Travis
TTITLE2=Tritt]
TTITLE3=Down Home
TTITLE4=Just Between You And Me
TTITLE5=Hey Baby
TTITLE6=Doin' My Time [with Johnny Cash]
TTITLE7=Now That's Country
TTITLE8=The King Of Dixie
TTITLE9=Honky Tonk Crowd
EXTD=YEAR: 1992 ID3G: 2
EXTT0=
EXTT1=
EXTT2=
EXTT3=
EXTT4=
EXTT5=
EXTT6=
EXTT7=
EXTT8=
EXTT9=
PLAYORDER=
